<?xml version="1.0" encoding="UTF-8"?><svg id="Layer_2" xmlns="http://www.w3.org/2000/svg" viewBox="0 0 502.39 502.85"><defs><style>.cls-1{fill:#6a6a6a;stroke-width:0px;}</style></defs><g id="Layer_1-2"><path class="cls-1" d="m345.23,35c32.63,0,63.31,12.71,86.38,35.78,23.07,23.07,35.78,53.75,35.78,86.38s-12.71,63.31-35.78,86.38c-23.07,23.07-53.75,35.78-86.38,35.78s-63.31-12.71-86.38-35.78c-23.07-23.07-35.78-53.75-35.78-86.38s12.71-63.31,35.78-86.38c23.07-23.07,53.75-35.78,86.38-35.78m0-35c-86.8,0-157.16,70.36-157.16,157.16s70.36,157.16,157.16,157.16,157.16-70.36,157.16-157.16S432.02,0,345.23,0h0Z"/><rect class="cls-1" x="-25.86" y="365.78" width="282.14" height="43.72" transform="translate(-240.36 195) rotate(-45)"/></g></svg>