<?xml version="1.0" encoding="UTF-8"?><svg id="Layer_2" xmlns="http://www.w3.org/2000/svg" viewBox="0 0 495.64 451.98"><defs><style>.cls-1,.cls-2{stroke-width:0px;}.cls-2{fill:#fff;}</style></defs><g id="Layer_1-2"><path class="cls-2" d="m269.65,446.98c-59.03,0-114.52-22.99-156.26-64.73-41.74-41.74-64.73-97.24-64.73-156.26s22.99-114.52,64.73-156.26C155.12,27.99,210.62,5,269.65,5s114.52,22.99,156.26,64.73c41.74,41.74,64.73,97.24,64.73,156.26s-22.99,114.52-64.73,156.26c-41.74,41.74-97.24,64.73-156.26,64.73Z"/><path class="cls-1" d="m269.65,10c29.16,0,57.45,5.71,84.07,16.97,25.72,10.88,48.82,26.45,68.66,46.29,19.84,19.84,35.41,42.94,46.29,68.66,11.26,26.62,16.97,54.91,16.97,84.07s-5.71,57.45-16.97,84.07c-10.88,25.72-26.45,48.82-46.29,68.66-19.84,19.84-42.94,35.41-68.66,46.29-26.62,11.26-54.91,16.97-84.07,16.97s-57.45-5.71-84.07-16.97c-25.72-10.88-48.82-26.45-68.66-46.29-19.84-19.84-35.41-42.94-46.29-68.66-11.26-26.62-16.97-54.91-16.97-84.07s5.71-57.45,16.97-84.07c10.88-25.72,26.45-48.82,46.29-68.66,19.84-19.84,42.94-35.41,68.66-46.29,26.62-11.26,54.91-16.97,84.07-16.97M269.65,0C144.84,0,43.66,101.18,43.66,225.99s101.18,225.99,225.99,225.99,225.99-101.18,225.99-225.99S394.46,0,269.65,0h0Z"/><circle class="cls-1" cx="181.98" cy="185.43" r="175.98" transform="translate(-77.82 182.99) rotate(-45)"/><path class="cls-2" d="m181.98,15.45c45.4,0,88.09,17.68,120.2,49.79,32.11,32.11,49.79,74.79,49.79,120.2s-17.68,88.09-49.79,120.2-74.79,49.79-120.2,49.79-88.09-17.68-120.2-49.79c-32.11-32.11-49.79-74.79-49.79-120.2s17.68-88.09,49.79-120.2C93.89,33.13,136.58,15.45,181.98,15.45m0-12C81.48,3.45,0,84.92,0,185.43s81.48,181.98,181.98,181.98,181.98-81.48,181.98-181.98S282.49,3.45,181.98,3.45h0Z"/><path class="cls-1" d="m268.99,10c29.16,0,57.45,5.71,84.07,16.97,25.72,10.88,48.82,26.45,68.66,46.29s35.41,42.94,46.29,68.66c11.26,26.62,16.97,54.91,16.97,84.07s-5.71,57.45-16.97,84.07c-10.88,25.72-26.45,48.82-46.29,68.66-19.84,19.84-42.94,35.41-68.66,46.29-26.62,11.26-54.91,16.97-84.07,16.97s-57.45-5.71-84.07-16.97c-25.72-10.88-48.82-26.45-68.66-46.29-19.84-19.84-35.41-42.94-46.29-68.66-11.26-26.62-16.97-54.91-16.97-84.07s5.71-57.45,16.97-84.07c10.88-25.72,26.45-48.82,46.29-68.66,19.84-19.84,42.94-35.41,68.66-46.29,26.62-11.26,54.91-16.97,84.07-16.97m0-10C144.18,0,43,101.18,43,225.99s101.18,225.99,225.99,225.99,225.99-101.18,225.99-225.99S393.8,0,268.99,0h0Z"/></g></svg>